<?xml version="1.0" encoding="utf-8"?>
<!-- Svg Vector Icons : http://www.onlinewebfonts.com/icon -->
<!DOCTYPE svg PUBLIC "-//W3C//DTD SVG 1.1//EN" "http://www.w3.org/Graphics/SVG/1.1/DTD/svg11.dtd">
<svg version="1.1" xmlns="http://www.w3.org/2000/svg" xmlns:xlink="http://www.w3.org/1999/xlink" x="0px" y="0px" viewBox="0 0 1000 1000" enable-background="new 0 0 1000 1000" xml:space="preserve">
<metadata> Svg Vector Icons : http://www.onlinewebfonts.com/icon </metadata>
<g><path d="M694.2,163.2c-42.1,0-124.7,70.9-194,70.9c-69.4,0-155.3-70.9-192.5-70.9c-255.2,0-401.4,673.6-210.6,673.6c175.5,0,193-177.5,403.2-197c174.9,19.5,297.4,194.5,402,194.5C1093.1,834.3,949.4,163.2,694.2,163.2z M307.5,517.6c-48.4,0-87.6-39.7-87.6-88.6c0-49,39.2-88.6,87.6-88.6c48.3,0,87.5,39.7,87.5,88.6C395.1,477.9,355.9,517.6,307.5,517.6z M648.8,464.6c-14.5,0-26.2-12-26.2-26.7c0-14.7,11.7-26.7,26.2-26.7c14.4,0,26.2,11.9,26.2,26.7C675,452.7,663.2,464.6,648.8,464.6z M719,535.5c-14.6,0-26.4-12-26.4-26.7c0-14.7,11.8-26.7,26.4-26.7c14.6,0,26.4,11.9,26.4,26.7C745.4,523.6,733.6,535.5,719,535.5z M719,393.7c-14.6,0-26.4-12-26.4-26.7c0-14.7,11.8-26.7,26.4-26.7c14.6,0,26.4,11.9,26.4,26.7C745.4,381.7,733.6,393.7,719,393.7z M789.1,464.6c-14.5,0-26.2-12-26.2-26.7c0-14.7,11.7-26.7,26.2-26.7c14.4,0,26.2,11.9,26.2,26.7C815.2,452.7,803.5,464.6,789.1,464.6z"/></g>
</svg>